# xmcd
#
# Track frame offsets:
#  150
#  20434
#  42699
#  60643
#  106177
#  135859
#  161727
#
# Disc length: 2760 seconds
#
# Revision: 0
# Processed by: cddbd v1.5.1PL0 Copyright (c) Steve Scherf et al.
# Submitted via: Collectorz.com_Music_Collector 6.9
#
DISCID=550ac607
DTITLE=Albert King - Blues at Sunrise: Live at Montreux
DYEAR=1992
DGENRE=Blues -  Blues Electric -  Blues Guitar
TTITLE0=Don't Burn Down the Bridge ('Cause You Might Wanna Come Back)
TTITLE1=I Believe to My Soul
TTITLE2=For the Love of a Woman
TTITLE3=Blues at Sunrise
TTITLE4=I'll Play the Blues for You
TTITLE5=Little Brother (Make a Way)
TTITLE6=Roadhouse Blues
EXTD=
EXTT0=
EXTT1=
EXTT2=
EXTT3=
EXTT4=
EXTT5=
EXTT6=
PLAYORDER=
